<svg width="236" height="139" viewBox="0 0 236 139" fill="none" xmlns="http://www.w3.org/2000/svg">
<path d="M88.8991 1.944C88.8511 1.992 88.7791 2.112 88.6831 2.304C88.6351 2.496 88.6111 2.832 88.6111 3.312C88.6111 3.984 88.7071 4.632 88.8991 5.256V29.088C88.8991 31.536 88.6591 33.888 88.1791 36.144C87.6991 38.4 86.8591 40.416 85.6591 42.192C84.5071 43.92 82.8991 45.288 80.8351 46.296C78.8191 47.352 76.2271 47.88 73.0591 47.88H72.1231C69.3871 47.88 67.1551 47.496 65.4271 46.728C63.7471 46.008 62.4271 45.072 61.4671 43.92C60.5071 42.768 59.8591 41.52 59.5231 40.176C59.1871 38.784 59.0191 37.464 59.0191 36.216C59.0191 35.16 59.1631 34.152 59.4511 33.192C59.6911 32.184 60.0751 31.32 60.6031 30.6C61.0831 29.832 61.6831 29.232 62.4031 28.8C63.1231 28.32 63.9391 28.08 64.8511 28.08C65.7151 28.08 66.2671 28.32 66.5071 28.8C66.7471 29.232 66.8671 29.688 66.8671 30.168C66.8671 31.224 66.6511 32.112 66.2191 32.832C65.7871 33.504 65.3071 34.104 64.7791 34.632C64.2991 35.16 63.8431 35.688 63.4111 36.216C62.9791 36.744 62.7631 37.392 62.7631 38.16C62.7631 40.464 63.5311 42.12 65.0671 43.128C66.6031 44.136 68.5231 44.64 70.8271 44.64C72.8431 44.64 74.5951 44.232 76.0831 43.416C77.5711 42.6 78.7951 41.568 79.7551 40.32C80.7631 39.072 81.5071 37.728 81.9871 36.288C82.4671 34.8 82.7071 33.408 82.7071 32.112L81.6271 32.184C79.8991 32.184 78.3871 31.8 77.0911 31.032C75.8431 30.216 74.7871 29.208 73.9231 28.008C73.1071 26.808 72.4831 25.512 72.0511 24.12C71.6671 22.728 71.4751 21.432 71.4751 20.232V17.712C71.4751 16.8 71.5951 15.744 71.8351 14.544C72.0751 13.296 72.4111 12.024 72.8431 10.728C73.2751 9.384 73.8031 8.088 74.4271 6.84C75.0511 5.544 75.7231 4.392 76.4431 3.384C77.1631 2.376 77.9311 1.56 78.7471 0.935997C79.5631 0.311999 80.4031 0 81.2671 0C81.6031 0 81.9871 0.0719991 82.4191 0.215997L87.4591 0.575997C87.7951 0.623996 88.1071 0.743996 88.3951 0.935997C88.7311 1.128 88.8991 1.464 88.8991 1.944ZM82.7071 10.584C82.8031 10.2 82.8991 9.84 82.9951 9.504C83.0911 9.168 83.1391 8.784 83.1391 8.352C83.1391 7.728 82.9711 7.176 82.6351 6.696C82.3471 6.168 81.7951 5.904 80.9791 5.904C79.9231 5.904 79.0591 6.336 78.3871 7.2C77.7151 8.064 77.1871 9.096 76.8031 10.296C76.4671 11.496 76.2271 12.744 76.0831 14.04C75.9391 15.336 75.8671 16.392 75.8671 17.208C75.8671 17.832 75.9151 18.744 76.0111 19.944C76.1071 21.096 76.3231 22.248 76.6591 23.4C77.0431 24.552 77.5471 25.56 78.1711 26.424C78.8431 27.288 79.7311 27.72 80.8351 27.72C80.9311 27.72 81.1951 27.696 81.6271 27.648C82.1071 27.6 82.4671 27.528 82.7071 27.432V10.584ZM105.418 29.304C104.698 30.312 104.098 31.44 103.618 32.688C103.186 33.888 102.802 35.16 102.466 36.504C102.13 37.8 101.842 39.12 101.602 40.464C101.41 41.76 101.194 43.008 100.954 44.208C100.858 44.496 100.474 44.688 99.802 44.784C99.178 44.88 98.722 44.928 98.434 44.928C97.57 44.928 96.85 44.88 96.274 44.784C95.746 44.688 95.338 44.472 95.05 44.136C94.762 43.752 94.546 43.2 94.402 42.48C94.258 41.712 94.138 40.704 94.042 39.456L94.978 18.072C94.978 17.448 95.314 17.136 95.986 17.136C96.226 17.136 96.562 17.184 96.994 17.28C97.426 17.328 97.882 17.424 98.362 17.568C98.842 17.712 99.25 17.904 99.586 18.144C99.922 18.336 100.09 18.576 100.09 18.864V33.48C100.138 33.432 100.21 33.24 100.306 32.904C100.642 32.04 101.05 30.984 101.53 29.736C102.01 28.44 102.538 27.216 103.114 26.064C103.69 24.912 104.29 23.928 104.914 23.112C105.586 22.296 106.258 21.888 106.93 21.888C107.794 21.888 108.442 22.104 108.874 22.536C109.354 22.92 109.714 23.424 109.954 24.048C110.194 24.672 110.338 25.344 110.386 26.064C110.434 26.784 110.458 27.48 110.458 28.152C110.458 28.632 110.41 29.424 110.314 30.528C110.218 31.632 110.17 33.288 110.17 35.496C110.17 36.744 110.29 37.872 110.53 38.88C110.77 39.888 111.25 40.392 111.97 40.392C112.498 40.392 112.978 40.152 113.41 39.672C113.842 39.192 114.226 38.592 114.562 37.872C114.946 37.152 115.258 36.384 115.498 35.568C115.738 34.752 115.882 33.984 115.93 33.264C115.978 32.352 116.338 31.896 117.01 31.896C117.442 31.896 117.73 32.04 117.874 32.328C118.018 32.616 118.09 32.952 118.09 33.336V33.48C118.042 34.44 117.85 35.52 117.514 36.72C117.226 37.92 116.77 39.048 116.146 40.104C115.57 41.16 114.802 42.048 113.842 42.768C112.882 43.488 111.706 43.848 110.314 43.848C108.154 43.848 106.762 43.08 106.138 41.544C105.562 39.96 105.274 37.632 105.274 34.56L105.418 29.304ZM133.476 40.536C133.476 41.688 133.092 42.576 132.324 43.2C131.556 43.824 130.668 44.28 129.66 44.568C128.7 44.856 127.716 45.024 126.708 45.072C125.748 45.168 125.052 45.216 124.62 45.216C123.948 45.216 123.108 45.144 122.1 45C121.14 44.856 120.18 44.64 119.22 44.352C118.308 44.016 117.516 43.56 116.844 42.984C116.22 42.408 115.908 41.688 115.908 40.824C115.908 40.296 116.1 39.936 116.484 39.744C116.916 39.504 117.324 39.384 117.708 39.384C118.236 39.384 118.74 39.576 119.22 39.96C119.748 40.344 120.276 40.752 120.804 41.184C121.38 41.616 122.004 42.024 122.676 42.408C123.348 42.792 124.116 42.984 124.98 42.984C125.364 42.984 125.868 42.864 126.492 42.624C127.164 42.336 127.5 41.856 127.5 41.184C127.5 40.512 127.212 39.864 126.636 39.24C126.108 38.616 125.412 37.968 124.548 37.296C123.732 36.624 122.844 35.928 121.884 35.208C120.924 34.488 120.012 33.72 119.148 32.904C118.332 32.04 117.636 31.104 117.06 30.096C116.532 29.088 116.268 27.984 116.268 26.784C116.268 25.104 116.796 23.688 117.852 22.536C118.956 21.384 120.228 20.472 121.668 19.8C123.156 19.128 124.668 18.648 126.204 18.36C127.74 18.072 128.94 17.928 129.804 17.928C130.62 17.928 131.436 18.096 132.252 18.432C133.068 18.768 133.476 19.416 133.476 20.376C133.476 20.664 133.404 21.096 133.26 21.672C133.164 22.2 132.972 22.728 132.684 23.256C132.444 23.784 132.108 24.264 131.676 24.696C131.244 25.08 130.692 25.272 130.02 25.272C129.828 25.272 129.636 25.2 129.444 25.056C129.252 24.864 129.036 24.672 128.796 24.48C128.556 24.24 128.292 24.048 128.004 23.904C127.764 23.712 127.476 23.616 127.14 23.616C125.46 23.616 124.284 24.12 123.612 25.128C122.94 26.088 122.604 27.12 122.604 28.224C122.604 29.184 123.156 30.192 124.26 31.248C125.412 32.304 126.66 33.36 128.004 34.416C129.396 35.472 130.644 36.528 131.748 37.584C132.9 38.592 133.476 39.576 133.476 40.536ZM135.026 31.968C135.074 29.52 135.146 27.024 135.242 24.48C135.338 21.936 135.434 19.584 135.53 17.424C135.53 17.04 135.146 16.776 134.378 16.632C133.61 16.488 132.746 16.344 131.786 16.2C130.826 16.056 129.962 15.84 129.194 15.552C128.426 15.216 128.042 14.688 128.042 13.968C128.042 13.344 128.666 12.984 129.914 12.888C131.162 12.792 133.01 12.744 135.458 12.744C135.65 12.744 135.77 12.456 135.818 11.88C135.914 11.304 135.962 10.584 135.962 9.72C136.01 8.808 136.034 7.848 136.034 6.84C136.082 5.832 136.13 4.896 136.178 4.032C136.226 3.12 136.298 2.376 136.394 1.8C136.538 1.224 136.706 0.935997 136.898 0.935997C137.138 0.935997 137.57 0.983997 138.194 1.08C138.818 1.176 139.466 1.32 140.138 1.512C140.81 1.656 141.386 1.848 141.866 2.088C142.394 2.328 142.658 2.592 142.658 2.88L141.866 12.24C141.866 12.528 142.106 12.744 142.586 12.888C143.114 12.984 143.762 13.056 144.53 13.104C145.346 13.104 146.186 13.104 147.05 13.104C147.962 13.104 148.802 13.176 149.57 13.32C150.386 13.464 151.034 13.704 151.514 14.04C152.042 14.328 152.306 14.784 152.306 15.408C152.306 15.504 152.258 15.672 152.162 15.912C152.066 16.104 151.946 16.2 151.802 16.2C151.706 16.2 151.562 16.128 151.37 15.984C151.226 15.84 150.794 15.768 150.074 15.768C149.882 15.768 149.354 15.792 148.49 15.84C147.626 15.888 146.714 15.96 145.754 16.056C144.794 16.152 143.906 16.272 143.09 16.416C142.322 16.512 141.89 16.656 141.794 16.848C141.746 16.944 141.674 17.52 141.578 18.576C141.53 19.584 141.458 20.928 141.362 22.608C141.314 24.288 141.266 26.232 141.218 28.44C141.17 30.6 141.146 32.88 141.146 35.28C141.146 36.192 141.194 37.08 141.29 37.944C141.386 38.808 141.53 39.6 141.722 40.32C141.914 40.992 142.154 41.544 142.442 41.976C142.778 42.408 143.162 42.624 143.594 42.624C144.218 42.624 144.794 42.36 145.322 41.832C145.85 41.304 146.33 40.584 146.762 39.672C147.194 38.76 147.578 37.728 147.914 36.576C148.25 35.424 148.538 34.248 148.778 33.048C148.922 32.328 149.09 31.824 149.282 31.536C149.474 31.2 149.762 31.032 150.146 31.032C150.482 31.032 150.77 31.152 151.01 31.392C151.298 31.584 151.442 32.064 151.442 32.832C151.442 33.312 151.418 33.624 151.37 33.768C151.226 34.632 150.938 35.832 150.506 37.368C150.122 38.856 149.57 40.344 148.85 41.832C148.178 43.272 147.338 44.544 146.33 45.648C145.322 46.752 144.146 47.304 142.802 47.304C141.506 47.304 140.378 46.92 139.418 46.152C138.458 45.432 137.642 44.424 136.97 43.128C136.346 41.784 135.866 40.224 135.53 38.448C135.194 36.624 135.026 34.68 135.026 32.616V31.968ZM177.753 37.152C177.657 37.824 177.417 38.616 177.033 39.528C176.649 40.44 176.145 41.328 175.521 42.192C174.945 43.008 174.249 43.704 173.433 44.28C172.665 44.856 171.801 45.144 170.841 45.144C169.401 45.144 168.129 44.592 167.025 43.488C165.969 42.384 165.321 40.824 165.081 38.808C164.793 39.576 164.457 40.464 164.073 41.472C163.689 42.48 163.209 43.416 162.633 44.28C162.057 45.144 161.385 45.864 160.617 46.44C159.897 47.064 159.033 47.376 158.025 47.376C157.737 47.376 157.521 47.352 157.377 47.304C157.233 47.256 157.065 47.184 156.873 47.088C156.729 47.04 156.537 46.992 156.297 46.944C156.105 46.896 155.817 46.872 155.433 46.872C154.281 46.872 153.297 46.488 152.481 45.72C151.713 45 151.089 44.064 150.609 42.912C150.129 41.76 149.769 40.512 149.529 39.168C149.337 37.776 149.241 36.48 149.241 35.28C149.241 32.4 149.385 29.664 149.673 27.072C150.009 24.48 150.537 22.2 151.257 20.232C151.977 18.216 152.913 16.632 154.065 15.48C155.217 14.28 156.609 13.68 158.241 13.68C159.201 13.68 159.921 13.776 160.401 13.968C160.929 14.112 161.409 14.304 161.841 14.544C162.273 14.736 162.729 14.952 163.209 15.192C163.737 15.432 164.457 15.624 165.369 15.768C166.377 16.344 167.073 17.04 167.457 17.856C167.889 18.624 168.153 19.464 168.249 20.376C168.393 21.288 168.441 22.248 168.393 23.256C168.345 24.216 168.393 25.176 168.537 26.136C168.537 26.184 168.633 26.256 168.825 26.352C169.065 26.448 169.329 26.568 169.617 26.712C169.905 26.808 170.145 26.976 170.337 27.216C170.577 27.408 170.697 27.672 170.697 28.008V28.296C170.217 29.544 169.929 30.648 169.833 31.608C169.737 32.568 169.689 33.72 169.689 35.064C169.689 35.736 169.713 36.48 169.761 37.296C169.857 38.064 169.977 38.808 170.121 39.528C170.313 40.2 170.577 40.776 170.913 41.256C171.249 41.688 171.681 41.904 172.209 41.904C172.785 41.904 173.289 41.616 173.721 41.04C174.201 40.464 174.585 39.816 174.873 39.096C175.209 38.328 175.473 37.56 175.665 36.792C175.905 36.024 176.049 35.448 176.097 35.064C176.193 34.488 176.433 34.2 176.817 34.2C177.057 34.2 177.273 34.344 177.465 34.632C177.705 34.872 177.825 35.328 177.825 36C177.825 36.192 177.825 36.384 177.825 36.576C177.825 36.72 177.801 36.912 177.753 37.152ZM164.433 25.488C164.433 24.96 164.385 24.336 164.289 23.616C164.193 22.896 164.025 22.224 163.785 21.6C163.545 20.976 163.185 20.448 162.705 20.016C162.225 19.584 161.577 19.368 160.761 19.368C159.417 19.368 158.313 19.992 157.449 21.24C156.633 22.44 155.985 23.88 155.505 25.56C155.025 27.192 154.713 28.896 154.569 30.672C154.425 32.4 154.353 33.768 154.353 34.776C154.353 35.544 154.377 36.48 154.425 37.584C154.521 38.64 154.665 39.648 154.857 40.608C155.049 41.568 155.313 42.384 155.649 43.056C156.033 43.728 156.513 44.064 157.089 44.064C158.481 44.064 159.537 43.536 160.257 42.48C161.025 41.376 161.601 40.032 161.985 38.448C162.369 36.816 162.633 35.088 162.777 33.264C162.969 31.392 163.137 29.688 163.281 28.152C163.377 27.336 163.593 26.832 163.929 26.64C164.265 26.4 164.433 26.232 164.433 26.136V25.488ZM43.0292 131.472C42.9812 131.568 42.9332 131.784 42.8852 132.12C42.8372 132.456 42.8132 132.768 42.8132 133.056C42.8132 133.248 42.8372 133.512 42.8852 133.848C42.9332 134.136 42.9572 134.328 42.9572 134.424C42.9572 134.808 42.7412 135.264 42.3092 135.792C41.9252 136.32 41.1092 136.584 39.8612 136.584C38.1332 136.584 36.7652 136.2 35.7572 135.432C34.7972 134.712 34.0532 133.824 33.5252 132.768C33.0452 131.712 32.7332 130.656 32.5892 129.6C32.4452 128.496 32.3492 127.608 32.3012 126.936C32.0132 127.512 31.6052 128.448 31.0772 129.744C30.5972 130.992 30.0212 132.264 29.3492 133.56C28.7252 134.856 28.0532 135.984 27.3332 136.944C26.6132 137.952 25.8932 138.456 25.1732 138.456C23.3012 138.456 21.7412 138.072 20.4932 137.304C19.2452 136.536 18.2372 135.552 17.4692 134.352C16.7492 133.152 16.2212 131.832 15.8852 130.392C15.5972 128.904 15.4532 127.464 15.4532 126.072C15.4532 125.832 15.4772 125.208 15.5252 124.2C15.5732 123.144 15.6212 121.824 15.6692 120.24C15.7652 118.608 15.8852 116.736 16.0292 114.624C16.1732 112.464 16.3412 110.16 16.5332 107.712C16.5332 107.616 16.5332 107.328 16.5332 106.848C16.5812 106.368 16.6052 105.84 16.6052 105.264C16.6052 104.688 16.6052 104.16 16.6052 103.68C16.6532 103.2 16.6772 102.912 16.6772 102.816C16.6772 102.24 16.6532 101.376 16.6052 100.224C16.5572 99.072 16.4132 97.92 16.1732 96.768C15.9332 95.616 15.5732 94.608 15.0932 93.744C14.6612 92.88 14.0372 92.448 13.2212 92.448C12.0692 92.448 10.9172 93.144 9.76516 94.536C8.66116 95.928 7.65316 97.632 6.74116 99.648C5.87716 101.664 5.15716 103.8 4.58116 106.056C4.05316 108.312 3.78916 110.304 3.78916 112.032C3.78916 112.704 3.83716 113.472 3.93316 114.336C4.02916 115.2 4.22116 116.016 4.50916 116.784C4.79716 117.552 5.20516 118.2 5.73316 118.728C6.26116 119.256 6.98116 119.52 7.89316 119.52C8.51716 119.52 8.99716 119.376 9.33316 119.088C9.66916 118.752 9.95716 118.392 10.1972 118.008C10.4852 117.576 10.7252 117.216 10.9172 116.928C11.1572 116.592 11.4692 116.424 11.8532 116.424C12.3332 116.424 12.6932 116.688 12.9332 117.216C13.2212 117.744 13.3652 118.224 13.3652 118.656C13.3652 119.808 12.9332 120.6 12.0692 121.032C11.2052 121.416 10.2932 121.608 9.33316 121.608C6.30916 121.608 4.00516 120.72 2.42116 118.944C0.837156 117.168 0.0451561 114.888 0.0451561 112.104C0.0451561 111.336 0.165156 110.232 0.405156 108.792C0.597156 107.304 0.933156 105.672 1.41316 103.896C1.84516 102.12 2.42116 100.32 3.14116 98.496C3.81316 96.624 4.60516 94.944 5.51716 93.456C6.42916 91.92 7.46116 90.672 8.61316 89.712C9.81316 88.752 11.1332 88.272 12.5732 88.272C13.5812 88.272 14.4692 88.536 15.2372 89.064C16.0532 89.592 16.7972 90.12 17.4692 90.648C18.6212 91.512 19.5572 92.544 20.2772 93.744C21.0452 94.944 21.6212 96.408 22.0052 98.136C22.3892 99.864 22.6532 101.88 22.7972 104.184C22.9412 106.488 23.0132 109.2 23.0132 112.32C23.0132 113.184 22.9652 114.192 22.8692 115.344C22.8212 116.496 22.7492 117.696 22.6532 118.944C22.6052 120.144 22.5332 121.392 22.4372 122.688C22.3892 123.984 22.3652 125.208 22.3652 126.36C22.3652 126.792 22.3652 127.464 22.3652 128.376C22.4132 129.24 22.5092 130.128 22.6532 131.04C22.8452 131.904 23.1092 132.672 23.4452 133.344C23.7812 134.016 24.2612 134.352 24.8852 134.352C25.2212 134.352 25.5332 134.208 25.8212 133.92C26.1092 133.584 26.3732 133.2 26.6132 132.768C26.8532 132.336 27.0452 131.904 27.1892 131.472C27.3812 131.04 27.5252 130.704 27.6212 130.464C29.5412 125.808 30.7412 121.104 31.2212 116.352C31.7492 111.552 32.0132 106.632 32.0132 101.592C32.0132 100.968 31.9172 100.368 31.7252 99.792C31.5812 99.216 31.5092 98.64 31.5092 98.064C31.5092 97.824 31.6532 97.608 31.9412 97.416C32.2292 97.176 32.5652 96.984 32.9492 96.84C33.3812 96.648 33.7892 96.504 34.1732 96.408C34.5572 96.312 34.8452 96.264 35.0372 96.264C35.3252 96.264 35.7092 96.36 36.1892 96.552C36.7172 96.696 37.2452 96.912 37.7732 97.2C38.3492 97.44 38.8772 97.704 39.3572 97.992C39.8852 98.28 40.2692 98.544 40.5092 98.784C40.0772 99.024 39.7412 99.36 39.5012 99.792C39.3092 100.224 39.1172 101.256 38.9252 102.888C38.7332 104.472 38.5412 106.464 38.3492 108.864C38.2052 111.264 38.0852 113.976 37.9892 117C37.8932 119.976 37.8452 123.048 37.8452 126.216C37.8452 126.6 37.8692 127.248 37.9172 128.16C38.0132 129.072 38.1332 129.984 38.2772 130.896C38.4692 131.808 38.7332 132.624 39.0692 133.344C39.4052 134.016 39.8132 134.352 40.2932 134.352C40.4852 134.352 40.6772 134.208 40.8692 133.92C41.0612 133.584 41.2532 133.248 41.4452 132.912C41.6852 132.528 41.9252 132.192 42.1652 131.904C42.4532 131.616 42.7412 131.472 43.0292 131.472ZM62.0028 130.536C62.0028 131.688 61.6188 132.576 60.8508 133.2C60.0828 133.824 59.1948 134.28 58.1868 134.568C57.2268 134.856 56.2428 135.024 55.2348 135.072C54.2748 135.168 53.5788 135.216 53.1468 135.216C52.4748 135.216 51.6348 135.144 50.6268 135C49.6668 134.856 48.7068 134.64 47.7468 134.352C46.8348 134.016 46.0428 133.56 45.3708 132.984C44.7468 132.408 44.4348 131.688 44.4348 130.824C44.4348 130.296 44.6268 129.936 45.0108 129.744C45.4428 129.504 45.8508 129.384 46.2348 129.384C46.7628 129.384 47.2668 129.576 47.7468 129.96C48.2748 130.344 48.8028 130.752 49.3308 131.184C49.9068 131.616 50.5308 132.024 51.2028 132.408C51.8748 132.792 52.6428 132.984 53.5068 132.984C53.8908 132.984 54.3948 132.864 55.0188 132.624C55.6908 132.336 56.0268 131.856 56.0268 131.184C56.0268 130.512 55.7388 129.864 55.1628 129.24C54.6348 128.616 53.9388 127.968 53.0748 127.296C52.2588 126.624 51.3708 125.928 50.4108 125.208C49.4508 124.488 48.5388 123.72 47.6748 122.904C46.8588 122.04 46.1628 121.104 45.5868 120.096C45.0588 119.088 44.7948 117.984 44.7948 116.784C44.7948 115.104 45.3228 113.688 46.3788 112.536C47.4828 111.384 48.7548 110.472 50.1948 109.8C51.6828 109.128 53.1948 108.648 54.7308 108.36C56.2668 108.072 57.4668 107.928 58.3308 107.928C59.1468 107.928 59.9628 108.096 60.7788 108.432C61.5948 108.768 62.0028 109.416 62.0028 110.376C62.0028 110.664 61.9308 111.096 61.7868 111.672C61.6908 112.2 61.4988 112.728 61.2108 113.256C60.9708 113.784 60.6348 114.264 60.2028 114.696C59.7708 115.08 59.2188 115.272 58.5468 115.272C58.3548 115.272 58.1628 115.2 57.9708 115.056C57.7788 114.864 57.5628 114.672 57.3228 114.48C57.0828 114.24 56.8188 114.048 56.5308 113.904C56.2908 113.712 56.0028 113.616 55.6668 113.616C53.9868 113.616 52.8108 114.12 52.1388 115.128C51.4668 116.088 51.1308 117.12 51.1308 118.224C51.1308 119.184 51.6828 120.192 52.7868 121.248C53.9388 122.304 55.1868 123.36 56.5308 124.416C57.9228 125.472 59.1708 126.528 60.2748 127.584C61.4268 128.592 62.0028 129.576 62.0028 130.536ZM85.4411 123.912C85.4411 125.112 85.2251 126.456 84.7931 127.944C84.3611 129.432 83.6891 130.824 82.7771 132.12C81.8651 133.368 80.6891 134.424 79.2491 135.288C77.8571 136.152 76.1771 136.584 74.2091 136.584C72.3371 136.584 70.7531 136.248 69.4571 135.576C68.1611 134.904 67.0811 133.992 66.2171 132.84C65.4011 131.688 64.8011 130.344 64.4171 128.808C64.0811 127.224 63.9131 125.568 63.9131 123.84C63.9131 122.16 64.1051 120.312 64.4891 118.296C64.8731 116.28 65.4731 114.408 66.2891 112.68C67.1051 110.904 68.1371 109.44 69.3851 108.288C70.6331 107.088 72.1451 106.488 73.9211 106.488C74.7851 106.488 75.6011 106.68 76.3691 107.064C77.1371 107.4 77.8091 107.856 78.3851 108.432C78.9611 109.008 79.4171 109.68 79.7531 110.448C80.0891 111.216 80.2811 112.008 80.3291 112.824L80.4011 113.832C80.4011 114.984 80.2091 116.256 79.8251 117.648C79.4411 118.992 78.8891 120.264 78.1691 121.464C77.4491 122.616 76.5611 123.6 75.5051 124.416C74.4491 125.184 73.2491 125.568 71.9051 125.568C71.6651 125.568 71.3531 125.544 70.9691 125.496C70.6331 125.448 70.2971 125.376 69.9611 125.28V127.368C69.9611 127.704 70.0571 128.184 70.2491 128.808C70.4891 129.432 70.8251 130.056 71.2571 130.68C71.6891 131.256 72.2411 131.784 72.9131 132.264C73.6331 132.696 74.4971 132.912 75.5051 132.912C76.8971 132.912 78.0251 132.648 78.8891 132.12C79.8011 131.544 80.5451 130.824 81.1211 129.96C81.6971 129.096 82.1291 128.136 82.4171 127.08C82.7531 125.976 83.0171 124.92 83.2091 123.912C83.3531 123.24 83.4971 122.784 83.6411 122.544C83.7851 122.304 84.0251 122.184 84.3611 122.184C85.0811 122.184 85.4411 122.592 85.4411 123.408V123.912ZM76.9451 112.752C76.9451 112.368 76.8251 111.96 76.5851 111.528C76.3931 111.096 76.0091 110.88 75.4331 110.88C74.5691 110.88 73.8251 111.336 73.2011 112.248C72.5771 113.16 72.0491 114.216 71.6171 115.416C71.2331 116.568 70.9451 117.696 70.7531 118.8C70.5611 119.856 70.4651 120.552 70.4651 120.888V121.104C70.4651 121.536 70.4891 121.896 70.5371 122.184C70.6331 122.424 70.8971 122.544 71.3291 122.544H71.6891C72.6491 122.544 73.4651 122.184 74.1371 121.464C74.8091 120.744 75.3371 119.88 75.7211 118.872C76.1531 117.864 76.4651 116.832 76.6571 115.776C76.8491 114.72 76.9451 113.856 76.9451 113.184V112.752ZM137.535 132.624C137.535 134.016 137.031 134.952 136.023 135.432C135.063 135.96 133.887 136.224 132.495 136.224C131.103 136.224 129.927 135.744 128.967 134.784C128.055 133.776 127.311 132.192 126.735 130.032C126.207 127.824 125.823 124.968 125.583 121.464C125.343 117.912 125.223 113.616 125.223 108.576C125.223 108.384 125.151 108.264 125.007 108.216C124.959 108.264 124.791 108.792 124.503 109.8C124.215 110.76 123.879 111.984 123.495 113.472C123.159 114.96 122.775 116.64 122.343 118.512C121.911 120.336 121.527 122.136 121.191 123.912C120.855 125.64 120.567 127.272 120.327 128.808C120.087 130.344 119.967 131.544 119.967 132.408C119.967 132.792 120.039 133.08 120.183 133.272C120.375 133.464 120.471 133.608 120.471 133.704C120.471 133.944 120.327 134.16 120.039 134.352C119.799 134.544 119.487 134.712 119.103 134.856C118.767 135 118.431 135.096 118.095 135.144C117.807 135.24 117.591 135.288 117.447 135.288C117.063 135.288 116.559 135.216 115.935 135.072C115.359 134.928 114.759 134.712 114.135 134.424C113.559 134.088 112.983 133.68 112.407 133.2C111.879 132.72 111.471 132.12 111.183 131.4C110.991 130.872 110.823 130.032 110.679 128.88C110.583 127.728 110.511 126.456 110.463 125.064C110.415 123.672 110.367 122.208 110.319 120.672C110.319 119.136 110.319 117.72 110.319 116.424C110.319 114.84 110.295 113.448 110.247 112.248C110.199 111.048 110.055 110.448 109.815 110.448C109.719 110.448 109.575 110.688 109.383 111.168C109.191 111.6 108.975 112.104 108.735 112.68C108.543 113.256 108.351 113.832 108.159 114.408C108.015 114.936 107.919 115.32 107.871 115.56C106.863 119.496 106.191 122.928 105.855 125.856C105.519 128.736 105.351 131.4 105.351 133.848C105.351 134.328 105.351 134.664 105.351 134.856C105.399 135.048 105.447 135.168 105.495 135.216C105.543 135.312 105.591 135.384 105.639 135.432C105.687 135.48 105.735 135.624 105.783 135.864C105.351 136.104 104.727 136.272 103.911 136.368C103.095 136.464 102.279 136.512 101.463 136.512C101.367 136.512 101.055 136.464 100.527 136.368C100.047 136.32 99.5193 136.2 98.9433 136.008C98.4153 135.816 97.9113 135.576 97.4313 135.288C96.9993 135 96.7833 134.64 96.7833 134.208C96.7833 133.824 96.7833 133.08 96.7833 131.976C96.8313 130.872 96.8553 129.576 96.8553 128.088C96.9033 126.552 96.9273 124.896 96.9273 123.12C96.9753 121.296 96.9993 119.472 96.9993 117.648C97.0473 115.824 97.0713 114.072 97.0713 112.392C97.1193 110.664 97.1433 109.176 97.1433 107.928C97.1433 107.544 97.1193 106.968 97.0713 106.2C97.0713 105.384 97.0233 104.472 96.9273 103.464C96.8313 102.408 96.6633 101.352 96.4233 100.296C96.2313 99.192 95.9433 98.208 95.5593 97.344C95.2233 96.432 94.7673 95.688 94.1913 95.112C93.6633 94.536 92.9913 94.248 92.1753 94.248C90.5913 94.248 89.1993 94.872 87.9993 96.12C86.7993 97.32 85.8153 98.808 85.0473 100.584C84.2793 102.312 83.7033 104.136 83.3193 106.056C82.9353 107.976 82.7433 109.632 82.7433 111.024C82.7433 111.456 82.7673 112.128 82.8153 113.04C82.9113 113.952 83.0793 114.864 83.3193 115.776C83.6073 116.64 84.0153 117.432 84.5433 118.152C85.1193 118.824 85.8633 119.16 86.7753 119.16C86.8713 119.16 87.1593 119.136 87.6393 119.088C88.1193 119.04 88.4313 119.016 88.5753 119.016C88.7193 119.016 88.9353 119.04 89.2233 119.088C89.5593 119.136 89.8953 119.208 90.2313 119.304C90.5673 119.4 90.8553 119.568 91.0953 119.808C91.3833 120 91.5273 120.288 91.5273 120.672C91.5273 121.104 91.3833 121.464 91.0953 121.752C90.8073 121.992 90.4473 122.184 90.0153 122.328C89.6313 122.472 89.2473 122.568 88.8633 122.616C88.5273 122.664 88.2873 122.688 88.1433 122.688C86.2233 122.688 84.6873 122.208 83.5353 121.248C82.3833 120.288 81.4953 119.136 80.8713 117.792C80.2473 116.448 79.8393 115.056 79.6473 113.616C79.4073 112.128 79.2873 110.856 79.2873 109.8C79.2873 108.024 79.5513 105.984 80.0793 103.68C80.5593 101.376 81.3753 99.216 82.5273 97.2C83.7273 95.136 85.2633 93.408 87.1353 92.016C89.0073 90.576 91.3113 89.856 94.0473 89.856C94.8633 89.856 95.6073 90.072 96.2793 90.504C96.9993 90.888 97.6473 91.416 98.2233 92.088C98.7993 92.712 99.2793 93.408 99.6633 94.176C100.095 94.944 100.407 95.664 100.599 96.336C101.127 97.824 101.511 99.672 101.751 101.88C102.039 104.04 102.231 106.32 102.327 108.72C102.471 111.072 102.543 113.448 102.543 115.848C102.591 118.248 102.639 120.456 102.687 122.472C102.927 121.272 103.167 120.144 103.407 119.088C103.695 118.032 103.983 116.952 104.271 115.848C104.559 114.744 104.847 113.568 105.135 112.32C105.471 111.072 105.831 109.656 106.215 108.072C106.599 106.344 107.031 104.496 107.511 102.528C108.039 100.56 108.567 98.784 109.095 97.2C109.191 96.768 109.551 96.504 110.175 96.408C110.799 96.312 111.207 96.264 111.399 96.264C111.783 96.264 112.263 96.408 112.839 96.696C113.463 96.936 114.039 97.248 114.567 97.632C115.143 98.016 115.623 98.472 116.007 99C116.439 99.48 116.655 99.96 116.655 100.44V112.752C116.655 113.664 116.655 114.792 116.655 116.136C116.703 117.48 116.727 118.776 116.727 120.024C116.775 121.224 116.823 122.256 116.871 123.12C116.967 123.984 117.063 124.416 117.159 124.416C117.447 124.416 117.783 123.576 118.167 121.896C118.599 120.168 119.079 118.032 119.607 115.488C120.135 112.944 120.711 110.208 121.335 107.28C121.959 104.304 122.631 101.544 123.351 99C124.071 96.456 124.839 94.344 125.655 92.664C126.471 90.936 127.311 90.072 128.175 90.072C128.703 90.072 129.279 90.384 129.903 91.008C130.527 91.632 131.103 92.352 131.631 93.168C132.159 93.936 132.591 94.728 132.927 95.544C133.263 96.312 133.431 96.84 133.431 97.128C133.431 97.32 133.311 97.824 133.071 98.64C132.831 99.408 132.567 100.704 132.279 102.528C132.039 104.352 131.799 106.824 131.559 109.944C131.319 113.016 131.199 116.928 131.199 121.68C131.199 122.64 131.271 123.792 131.415 125.136C131.607 126.48 131.871 127.776 132.207 129.024C132.543 130.224 132.975 131.256 133.503 132.12C134.079 132.984 134.751 133.416 135.519 133.416C135.903 133.416 136.239 133.344 136.527 133.2C136.815 133.008 137.103 132.648 137.391 132.12C137.487 132.216 137.535 132.384 137.535 132.624ZM161.722 114.408C161.914 114.072 162.25 113.904 162.73 113.904C162.97 113.904 163.138 114.048 163.234 114.336C163.33 114.624 163.378 114.864 163.378 115.056C163.33 116.544 162.994 117.888 162.37 119.088C161.794 120.24 161.17 121.248 160.498 122.112C160.114 122.64 159.682 123.12 159.202 123.552C158.77 123.984 158.314 124.392 157.834 124.776C157.786 125.592 157.738 126.168 157.69 126.504C157.69 126.792 157.666 127.032 157.618 127.224C157.522 127.944 157.282 128.856 156.898 129.96C156.514 131.064 155.962 132.144 155.242 133.2C154.57 134.256 153.73 135.144 152.722 135.864C151.762 136.632 150.634 137.016 149.338 137.016C148.906 137.016 148.402 136.968 147.826 136.872C147.298 136.776 146.746 136.632 146.17 136.44C145.594 136.296 145.042 136.104 144.514 135.864C143.986 135.672 143.53 135.456 143.146 135.216C141.946 134.544 140.962 133.752 140.194 132.84C139.426 131.928 138.826 130.968 138.394 129.96C138.01 128.904 137.746 127.848 137.602 126.792C137.458 125.688 137.386 124.632 137.386 123.624C137.386 121.896 137.554 120.144 137.89 118.368C138.274 116.592 138.73 114.888 139.258 113.256C139.786 111.624 140.386 110.16 141.058 108.864C141.73 107.568 142.378 106.56 143.002 105.84C143.626 105.168 144.322 104.712 145.09 104.472C145.858 104.184 146.554 104.04 147.178 104.04C147.946 104.04 148.714 104.232 149.482 104.616C150.25 105 150.994 105.48 151.714 106.056C152.434 106.632 153.13 107.304 153.802 108.072C154.522 108.792 155.194 109.512 155.818 110.232C156.298 110.76 156.658 111.624 156.898 112.824C157.138 113.976 157.33 115.152 157.474 116.352C157.57 117.024 157.642 117.744 157.69 118.512C157.738 119.28 157.762 120.072 157.762 120.888C158.482 120.312 159.058 119.712 159.49 119.088C159.922 118.416 160.258 117.792 160.498 117.216C160.786 116.64 161.002 116.112 161.146 115.632C161.338 115.104 161.53 114.696 161.722 114.408ZM153.586 120.6C153.586 120.408 153.562 119.976 153.514 119.304C153.514 118.632 153.466 117.84 153.37 116.928C153.322 116.016 153.202 115.08 153.01 114.12C152.866 113.112 152.626 112.2 152.29 111.384C152.002 110.568 151.618 109.896 151.138 109.368C150.658 108.792 150.058 108.504 149.338 108.504C148.618 108.504 147.922 108.792 147.25 109.368C146.578 109.944 145.978 110.688 145.45 111.6C144.922 112.512 144.49 113.544 144.154 114.696C143.866 115.848 143.722 116.976 143.722 118.08C143.722 120 144.106 121.416 144.874 122.328C145.642 123.192 146.962 123.624 148.834 123.624C150.226 123.624 151.354 123.408 152.218 122.976C153.13 122.544 153.586 122.208 153.586 121.968V120.6ZM153.226 126.504C152.65 126.888 151.858 127.176 150.85 127.368C149.842 127.56 149.002 127.656 148.33 127.656C147.034 127.656 146.026 127.56 145.306 127.368C144.634 127.176 143.89 126.792 143.074 126.216L143.002 127.728C143.002 128.256 143.074 128.808 143.218 129.384C143.362 129.96 143.578 130.488 143.866 130.968C144.202 131.448 144.658 131.856 145.234 132.192C145.81 132.48 146.53 132.624 147.394 132.624C148.45 132.624 149.338 132.432 150.058 132.048C150.826 131.616 151.426 131.088 151.858 130.464C152.338 129.84 152.674 129.168 152.866 128.448C153.106 127.728 153.226 127.08 153.226 126.504ZM182.325 123.624C182.325 124.92 182.205 126.312 181.965 127.8C181.773 129.24 181.341 130.584 180.669 131.832C180.045 133.032 179.133 134.04 177.933 134.856C176.781 135.672 175.245 136.08 173.325 136.08C171.597 136.08 170.325 135.936 169.509 135.648C168.741 135.408 168.093 135.12 167.565 134.784C167.565 134.784 167.445 134.856 167.205 135C166.965 135.096 166.701 135.216 166.413 135.36C166.125 135.504 165.837 135.624 165.549 135.72C165.309 135.864 165.117 135.936 164.973 135.936C164.637 135.936 164.325 135.816 164.037 135.576C163.797 135.336 163.605 134.856 163.461 134.136C163.317 133.368 163.197 132.336 163.101 131.04C163.053 129.696 163.029 127.944 163.029 125.784C163.029 122.328 163.077 117.576 163.173 111.528C163.269 105.48 163.365 97.68 163.461 88.128C163.461 87.648 163.413 87.36 163.317 87.264C163.221 87.168 163.173 87.072 163.173 86.976C163.173 86.688 163.437 86.496 163.965 86.4C164.541 86.304 164.901 86.256 165.045 86.256C165.189 86.256 165.573 86.304 166.197 86.4C166.821 86.496 167.445 86.64 168.069 86.832C168.741 87.024 169.341 87.288 169.869 87.624C170.397 87.912 170.661 88.272 170.661 88.704C170.661 88.704 170.613 88.848 170.517 89.136C170.421 89.424 170.301 89.784 170.157 90.216C170.013 90.6 169.869 90.984 169.725 91.368C169.629 91.704 169.581 91.944 169.581 92.088C169.341 93.912 169.149 95.496 169.005 96.84C168.909 98.136 168.813 99.528 168.717 101.016C168.669 102.456 168.597 104.136 168.501 106.056C168.453 107.976 168.357 110.472 168.213 113.544C168.453 113.064 168.669 112.464 168.861 111.744C169.101 110.976 169.389 110.232 169.725 109.512C170.061 108.792 170.469 108.168 170.949 107.64C171.477 107.112 172.173 106.848 173.037 106.848C173.421 106.848 173.949 106.992 174.621 107.28C175.341 107.568 175.893 107.76 176.277 107.856C177.621 108.144 178.677 108.912 179.445 110.16C180.261 111.36 180.885 112.776 181.317 114.408C181.749 115.992 182.013 117.624 182.109 119.304C182.253 120.984 182.325 122.424 182.325 123.624ZM177.069 121.896C177.069 121.752 177.045 121.368 176.997 120.744C176.997 120.12 176.949 119.4 176.853 118.584C176.805 117.768 176.709 116.904 176.565 115.992C176.421 115.032 176.205 114.168 175.917 113.4C175.677 112.632 175.365 112.008 174.981 111.528C174.597 111 174.117 110.736 173.541 110.736C172.773 110.736 172.053 111.408 171.381 112.752C170.709 114.096 170.109 115.728 169.581 117.648C169.101 119.52 168.717 121.464 168.429 123.48C168.141 125.496 167.997 127.152 167.997 128.448C167.997 128.976 167.997 129.552 167.997 130.176C168.045 130.752 168.117 131.304 168.213 131.832C168.789 132.072 169.221 132.288 169.509 132.48C169.797 132.624 170.037 132.768 170.229 132.912C170.421 133.008 170.613 133.08 170.805 133.128C171.045 133.176 171.333 133.2 171.669 133.2C172.917 133.2 173.901 132.72 174.621 131.76C175.341 130.752 175.869 129.624 176.205 128.376C176.589 127.08 176.829 125.808 176.925 124.56C177.021 123.312 177.069 122.424 177.069 121.896ZM194.783 101.664C194.783 102 194.615 102.288 194.279 102.528C193.943 102.72 193.559 102.864 193.127 102.96C192.743 103.056 192.359 103.128 191.975 103.176C191.591 103.224 191.351 103.248 191.255 103.248C190.247 103.248 189.239 102.96 188.231 102.384C187.271 101.808 186.383 100.896 185.567 99.648C185.471 99.504 185.327 99.312 185.135 99.072C184.943 98.832 184.847 98.664 184.847 98.568C184.847 98.328 185.015 98.112 185.351 97.92C185.735 97.728 186.143 97.536 186.575 97.344C187.055 97.152 187.487 97.008 187.871 96.912C188.303 96.816 188.591 96.768 188.735 96.768C189.695 96.768 190.631 97.008 191.543 97.488C192.503 97.968 193.271 98.856 193.847 100.152C193.943 100.296 194.111 100.56 194.351 100.944C194.639 101.28 194.783 101.52 194.783 101.664ZM202.127 123.48C201.983 124.632 201.719 125.832 201.335 127.08C200.951 128.328 200.399 129.504 199.679 130.608C199.007 131.664 198.143 132.552 197.087 133.272C196.031 133.944 194.735 134.28 193.199 134.28C191.999 134.28 190.775 133.872 189.527 133.056C188.279 132.192 187.415 131.064 186.935 129.672C186.503 128.28 186.287 126.936 186.287 125.64C186.287 125.256 186.311 124.68 186.359 123.912C186.407 123.144 186.431 122.208 186.431 121.104V113.184C186.431 112.8 186.407 112.392 186.359 111.96C186.359 111.528 186.311 111.12 186.215 110.736C186.167 110.544 186.071 110.328 185.927 110.088C185.831 109.848 185.783 109.68 185.783 109.584C185.783 109.392 185.903 109.248 186.143 109.152C186.383 109.008 186.647 108.912 186.935 108.864C187.223 108.816 187.487 108.792 187.727 108.792C188.015 108.792 188.159 108.792 188.159 108.792C188.303 108.792 188.639 108.816 189.167 108.864C189.695 108.864 190.247 108.936 190.823 109.08C191.399 109.224 191.903 109.464 192.335 109.8C192.815 110.088 193.055 110.52 193.055 111.096C193.103 111.24 193.007 111.504 192.767 111.888C192.575 112.272 192.383 112.944 192.191 113.904C192.143 114.288 192.095 114.648 192.047 114.984C191.999 115.272 191.951 115.608 191.903 115.992C191.855 116.376 191.807 116.856 191.759 117.432C191.711 117.96 191.663 118.656 191.615 119.52V123.84C191.615 124.608 191.639 125.4 191.687 126.216C191.735 126.984 191.831 127.704 191.975 128.376C192.167 129 192.455 129.528 192.839 129.96C193.223 130.344 193.727 130.536 194.351 130.536C195.263 130.536 195.983 130.272 196.511 129.744C197.039 129.216 197.447 128.76 197.735 128.376C198.263 127.656 198.671 126.768 198.959 125.712C199.247 124.608 199.511 123.48 199.751 122.328L199.895 121.608C200.039 120.888 200.471 120.528 201.191 120.528C201.911 120.528 202.271 121.032 202.271 122.04V122.4L202.127 123.48ZM214.519 132.912C214.519 133.488 214.303 133.992 213.871 134.424C213.487 134.856 212.983 135.24 212.359 135.576C211.783 135.912 211.159 136.152 210.487 136.296C209.863 136.488 209.335 136.584 208.903 136.584C208.087 136.584 207.175 136.488 206.167 136.296C205.207 136.152 204.391 135.816 203.719 135.288C202.951 134.664 202.303 133.68 201.775 132.336C201.295 130.944 200.911 129.312 200.623 127.44C200.383 125.52 200.215 123.408 200.119 121.104C200.023 118.752 199.975 116.304 199.975 113.76C199.975 112.704 199.999 111.528 200.047 110.232C200.143 108.936 200.239 107.592 200.335 106.2C200.431 104.76 200.551 103.344 200.695 101.952C200.839 100.512 200.983 99.144 201.127 97.848C201.271 96.936 201.439 95.952 201.631 94.896C201.823 93.84 202.015 92.832 202.207 91.872C202.447 90.912 202.711 90.048 202.999 89.28C203.287 88.512 203.599 87.96 203.935 87.624C204.319 87.24 204.823 87 205.447 86.904C206.119 86.76 206.719 86.688 207.247 86.688C208.351 86.688 209.239 86.976 209.911 87.552C210.583 88.128 211.087 88.92 211.423 89.928C211.807 90.888 212.047 92.016 212.143 93.312C212.287 94.56 212.359 95.904 212.359 97.344C212.359 99.552 212.287 101.952 212.143 104.544C211.999 107.088 211.687 109.656 211.207 112.248C210.775 114.84 210.127 117.36 209.263 119.808C208.447 122.256 207.343 124.488 205.951 126.504C205.999 127.176 206.071 127.968 206.167 128.88C206.311 129.744 206.503 130.56 206.743 131.328C206.983 132.096 207.295 132.744 207.679 133.272C208.063 133.8 208.567 134.064 209.191 134.064C209.767 134.064 210.223 133.944 210.559 133.704C210.895 133.416 211.183 133.104 211.423 132.768C211.711 132.432 211.975 132.144 212.215 131.904C212.503 131.616 212.863 131.472 213.295 131.472C213.775 131.472 214.087 131.616 214.231 131.904C214.423 132.192 214.519 132.528 214.519 132.912ZM209.119 99.072C209.119 98.592 209.095 98.016 209.047 97.344C209.047 96.672 208.975 96.024 208.831 95.4C208.735 94.728 208.591 94.176 208.399 93.744C208.207 93.264 207.943 93.024 207.607 93.024C207.127 93.024 206.743 93.696 206.455 95.04C206.167 96.384 205.927 98.16 205.735 100.368C205.591 102.528 205.471 105 205.375 107.784C205.327 110.52 205.303 113.304 205.303 116.136C205.303 116.952 205.303 117.816 205.303 118.728C205.303 119.592 205.351 120.36 205.447 121.032C207.031 117.24 208.039 113.568 208.471 110.016C208.903 106.464 209.119 102.816 209.119 99.072ZM235.629 123.912C235.629 125.112 235.413 126.456 234.981 127.944C234.549 129.432 233.877 130.824 232.965 132.12C232.053 133.368 230.877 134.424 229.437 135.288C228.045 136.152 226.365 136.584 224.397 136.584C222.525 136.584 220.941 136.248 219.645 135.576C218.349 134.904 217.269 133.992 216.405 132.84C215.589 131.688 214.989 130.344 214.605 128.808C214.269 127.224 214.101 125.568 214.101 123.84C214.101 122.16 214.293 120.312 214.677 118.296C215.061 116.28 215.661 114.408 216.477 112.68C217.293 110.904 218.325 109.44 219.573 108.288C220.821 107.088 222.333 106.488 224.109 106.488C224.973 106.488 225.789 106.68 226.557 107.064C227.325 107.4 227.997 107.856 228.573 108.432C229.149 109.008 229.605 109.68 229.941 110.448C230.277 111.216 230.469 112.008 230.517 112.824L230.589 113.832C230.589 114.984 230.397 116.256 230.013 117.648C229.629 118.992 229.077 120.264 228.357 121.464C227.637 122.616 226.749 123.6 225.693 124.416C224.637 125.184 223.437 125.568 222.093 125.568C221.853 125.568 221.541 125.544 221.157 125.496C220.821 125.448 220.485 125.376 220.149 125.28V127.368C220.149 127.704 220.245 128.184 220.437 128.808C220.677 129.432 221.013 130.056 221.445 130.68C221.877 131.256 222.429 131.784 223.101 132.264C223.821 132.696 224.685 132.912 225.693 132.912C227.085 132.912 228.213 132.648 229.077 132.12C229.989 131.544 230.733 130.824 231.309 129.96C231.885 129.096 232.317 128.136 232.605 127.08C232.941 125.976 233.205 124.92 233.397 123.912C233.541 123.24 233.685 122.784 233.829 122.544C233.973 122.304 234.213 122.184 234.549 122.184C235.269 122.184 235.629 122.592 235.629 123.408V123.912ZM227.133 112.752C227.133 112.368 227.013 111.96 226.773 111.528C226.581 111.096 226.197 110.88 225.621 110.88C224.757 110.88 224.013 111.336 223.389 112.248C222.765 113.16 222.237 114.216 221.805 115.416C221.421 116.568 221.133 117.696 220.941 118.8C220.749 119.856 220.653 120.552 220.653 120.888V121.104C220.653 121.536 220.677 121.896 220.725 122.184C220.821 122.424 221.085 122.544 221.517 122.544H221.877C222.837 122.544 223.653 122.184 224.325 121.464C224.997 120.744 225.525 119.88 225.909 118.872C226.341 117.864 226.653 116.832 226.845 115.776C227.037 114.72 227.133 113.856 227.133 113.184V112.752Z" fill="black"/>
</svg>
